<?xml version="1.0" encoding="utf-8"?>
<!-- Generator: Adobe Illustrator 19.1.0, SVG Export Plug-In . SVG Version: 6.00 Build 0)  -->
<svg version="1.1" xmlns="http://www.w3.org/2000/svg" xmlns:xlink="http://www.w3.org/1999/xlink" x="0px" y="0px"
	 viewBox="0 0 91 90.7" style="enable-background:new 0 0 91 90.7;" xml:space="preserve">
<style type="text/css">
	.st0{fill:#990000;}
	.st1{fill:#66CBCB;}
</style>
<g id="right_flag">
	<polygon class="st0" points="57.6,32 67.7,22.1 80.6,35.8 70.9,34.9 72.5,45.4 68.6,43.3 	"/>
</g>
<g id="left_flag">
	<polygon class="st1" points="23.7,22.8 33.1,32.7 19.9,46.3 19.4,44.8 20.9,35.1 10.8,36.1 16.9,29.4 	"/>
</g>
<g id="outlines">
	<path d="M0,46.7c0.3-0.4,0.2-0.8,0.2-1.3c0-0.4,0-0.8,0-1.2c0-0.3,0.1-0.6,0-0.8c0-1.1,0.2-2.3,0.3-3.4c0.1-0.9,0.2-1.9,0.4-2.8
		c0.2-1,0.4-2,0.8-2.9c0.7-1.5,1-3,1.6-4.5c0.2-0.4,0.4-0.8,0.5-1.2c0.2-0.4,0.4-0.8,0.5-1.2c0.2-0.7,0.5-1.2,0.8-1.8
		c0.3-0.5,0.4-1.1,0.7-1.6c0.2-0.4,0.4-0.7,0.6-1c0.3-0.3,0.6-0.6,0.5-1.1c0,0,0,0,0-0.1c0.3-0.5,0.6-0.9,0.9-1.4
		c0.2-0.4,0.5-0.7,0.8-1c0.6-0.8,1.1-1.7,1.9-2.3c0.3-0.2,0.6-0.5,0.8-0.9c0.3-0.5,0.7-1,1.2-1.3c0.3-0.2,0.5-0.4,0.8-0.6
		c1.2-1.1,2.4-2.3,3.7-3.4c0.6-0.6,1.3-1.1,1.9-1.6c0.9-0.7,1.7-1.5,2.6-2.1c1.1-0.8,2.2-1.5,3.4-2c0.7-0.3,1.4-0.7,2.1-1
		c0.6-0.3,1.2-0.5,1.8-0.7c0,0,0.1,0,0.1,0c0.6-0.5,1.3-0.4,1.9-0.7c0.3-0.1,0.6-0.1,0.9-0.2c0.6-0.2,1.1-0.4,1.7-0.6
		c0.8-0.2,1.6-0.3,2.4-0.6c1-0.3,2.1-0.4,3.2-0.6c1-0.2,2.1-0.4,3.1-0.6c1-0.1,2-0.1,3-0.2c0.2,0,0.5-0.1,0.7-0.1
		c0.4,0,0.7-0.2,1.1,0.1c0.1,0,0.2,0,0.2,0c0.8,0,1.6-0.2,2.4,0c0.7,0.1,1.4,0,2,0.2c0.3,0.1,0.7,0,1,0.1c0.7,0.1,1.3,0.3,2,0.4
		C55.4,1,56.3,1,57.1,1.2c0.8,0.2,1.6,0.4,2.4,0.6c0.5,0.1,0.9,0.4,1.4,0.5c0.2,0.1,0.4,0.2,0.6,0.2c1,0.1,1.8,0.6,2.7,1.1
		c0.1,0,0.1,0.1,0.2,0.2c0.1,0.4,0.4,0.5,0.7,0.5c0.1,0,0.3,0.1,0.4,0.1c0.2,0.1,0.5,0.2,0.7,0.3C66.4,4.9,66.8,5,67,5.4
		c0.2,0.3,0.5,0.4,0.8,0.6c0.6,0.3,1.2,0.7,1.7,1.2c0.1,0.1,0.2,0.2,0.3,0.2C70.4,7.7,71,8,71.5,8.3c0.3,0.1,0.5,0.3,0.7,0.5
		c0.5,0.5,1,1,1.6,1.4c0.4,0.3,0.8,0.5,1.2,0.9c0.7,0.7,1.4,1.4,2.1,2.1c0.2,0.2,0.4,0.4,0.5,0.6c0.2,0.3,0.4,0.7,0.7,0.9
		c0.5,0.4,0.9,0.8,1.2,1.3c0.1,0.1,0.2,0.2,0.3,0.3c0.5,0.6,1.1,1.2,1.6,1.8c0.5,0.6,1,1.1,1.5,1.8c0.4,0.6,0.8,1.2,1.2,1.9
		c0,0,0,0.1,0.1,0.1c0.6,0.5,0.8,1.2,1.3,1.8c0.4,0.5,0.6,1.1,0.9,1.6c0.5,0.7,0.8,1.5,1.2,2.2c0.2,0.3,0.3,0.7,0.4,1
		c0.3,0.6,0.6,1.2,0.8,1.8c0.1,0.1,0.2,0.3,0.1,0.4c-0.1,0.7,0.3,1.3,0.5,2c0.2,1.1,0.6,2.1,0.8,3.2c0.1,0.8,0.2,1.6,0.3,2.3
		c0.1,1,0.2,1.9,0.3,2.9c0.3,2.8,0.1,5.6,0.1,8.4c0,0.5-0.2,1.1-0.2,1.6c0,0.2-0.1,0.4-0.1,0.6c0,0.4,0,0.7,0,1.1
		c-0.1,0.5-0.3,0.9-0.4,1.4c-0.1,0.3-0.1,0.7,0,1c0,0.5-0.1,1-0.3,1.5c-0.4,1-0.7,2.1-1.1,3.1c-0.4,1-0.8,2.1-1.3,3.1
		c-0.4,0.8-0.8,1.7-1.2,2.5c-0.1,0.3-0.3,0.6-0.6,0.8c-0.3,0.2-0.3,0.5-0.5,0.8c-0.3,0.6-0.6,1.3-1,1.9c-0.4,0.8-1.1,1.3-1.4,2.1
		c-0.2,0.5-0.7,1-1.1,1.5c-0.4,0.5-0.9,1-1.4,1.5c-0.6,0.5-0.9,1.2-1.4,1.8c-0.2,0.3-0.5,0.5-0.8,0.8c-0.1,0.1-0.2,0.1-0.3,0.1
		c-0.5,0.4-1,0.9-1.5,1.3c-0.1,0.1-0.2,0.2-0.3,0.2c-0.5,0.1-0.7,0.4-0.9,0.8c-0.1,0.3-0.6,0.3-0.9,0.5c-0.4,0.3-0.9,0.4-1.2,0.9
		c-0.1,0.1-0.3,0.2-0.4,0.3c-0.2,0.1-0.3,0.1-0.2,0.4c0,0.1-0.1,0.2-0.2,0.3c-0.4,0.3-0.8,0.6-1.4,0.6c-0.3,0.1-0.6,0.2-0.9,0.5
		c-0.1,0.1-0.4,0.2-0.5,0.3c-0.3,0.5-0.7,0.7-1.2,0.8c-0.4,0.6-1.2,0.8-1.7,1.2c-0.3,0.2-0.7,0.3-1,0.4c-0.1,0.1-0.3,0.1-0.4,0.2
		c-0.5,0.5-1.1,0.6-1.7,1c-0.6,0.4-1.3,0.8-2.1,0.8c0,0-0.1,0-0.1,0.1c-0.5,0.6-1.2,0.7-1.8,0.8c-0.9,0.2-1.7,0.8-2.6,0.6
		c-0.1,0-0.2,0-0.3,0.1c-0.6,0.4-1.3,0.4-1.9,0.6c-0.5,0.2-1.1,0.3-1.6,0.5c-0.8,0.2-1.6,0.3-2.5,0.4c-0.3,0-0.6,0-0.9,0
		c-0.3,0-0.6,0.1-0.9,0.1c-0.9,0-1.7,0.1-2.6,0.1c-0.3,0-0.7,0.1-1,0.1c-0.1,0-0.2,0-0.3,0c-1-0.4-2.1,0-3.1-0.3c0,0-0.1,0-0.1,0
		c-1.2,0.2-2.4-0.2-3.5-0.5c-1.2-0.3-2.4-0.4-3.6-0.8c-0.3-0.1-0.5-0.2-0.8-0.3c-1.4-0.2-2.6-1.1-4-1.3c-0.2,0-0.4-0.1-0.6-0.1
		c-0.4-0.2-0.8-0.3-1-0.7c-0.1-0.1-0.3-0.2-0.4-0.3C27,86,26,85.6,25.2,85.1c-0.6-0.4-1.2-0.8-1.9-1.1c-0.1,0-0.1-0.1-0.1-0.1
		c-0.6-0.5-1.3-0.8-1.9-1.1c-0.1-0.1-0.2-0.2-0.4-0.3c-0.2-0.1-0.4-0.2-0.6-0.4c-0.4-0.3-0.8-0.6-1.2-0.9c-0.8-0.6-1.6-1.3-2.4-1.9
		c0,0-0.1,0-0.1,0c-0.5-0.7-1.3-1-1.9-1.4c-0.6-0.5-1.2-1.1-1.7-1.6c-0.5-0.5-0.9-1-1.3-1.5c-0.1-0.1-0.2-0.2-0.3-0.4
		c-0.3-1.1-1.1-1.8-1.7-2.7C9.4,71,9,70.5,8.7,69.9c-0.4-0.5-0.8-1-1.1-1.6c-0.5-1-1-2-1.5-2.9c0-0.1-0.1-0.2-0.1-0.2
		c-0.5-0.4-0.8-1-1.1-1.5c-0.3-0.6-0.5-1.2-0.8-1.8c-0.1-0.3-0.2-0.5-0.3-0.8c-0.3-0.9-0.7-1.8-1-2.7c-0.2-0.6-0.4-1.1-0.4-1.7
		c0-0.4-0.3-0.7-0.4-1.1c-0.3-1.2-0.6-2.4-1-3.5c-0.1-0.2-0.2-0.4-0.2-0.6c-0.3-0.8-0.4-1.6-0.4-2.4c0-0.4-0.1-0.9-0.2-1.3
		C0,47.4,0,47,0,46.7z M41.6,3.9C41.6,3.9,41.6,3.9,41.6,3.9C41,4,40.4,4,39.9,4.1c-0.4,0.1-0.7,0.1-1.1,0.2c-0.2,0-0.4,0.1-0.7,0.2
		c-0.4,0.1-0.7,0.2-1.1,0.3c-0.4,0.1-0.8,0.4-1.3,0.5c-1,0.3-2,0.5-3,0.8c-0.7,0.2-1.4,0.4-2,0.6C30,7,29.2,7.2,28.4,7.5
		c-0.3,0.1-0.7,0.2-0.9,0.6c0,0.1-0.2,0.2-0.3,0.2c-0.5,0.3-1,0.6-1.6,0.9c-0.3,0.2-0.6,0.3-0.9,0.5c-0.8,0.5-1.5,1-2.2,1.5
		c-0.2,0.1-0.5,0.2-0.7,0.4c-1.1,0.8-2,1.9-3.2,2.7c-0.4,0.3-0.8,0.7-1.2,1c-0.2,0.2-0.6,0.3-0.8,0.6c-0.3,0.3-0.4,0.8-0.9,0.9
		c-0.1,0-0.2,0.2-0.3,0.3c-0.2,0.2-0.3,0.5-0.5,0.7c-0.6,0.8-1.3,1.6-2,2.4c-0.2,0.3-0.5,0.5-0.7,0.8c-0.3,0.5-0.5,1.1-1,1.6
		c-0.1,0.1-0.2,0.3-0.3,0.5c-0.2,0.5-0.4,0.9-0.7,1.4c-0.9,1.2-1.6,2.6-2.2,4c-0.6,1.6-1.2,3.2-1.8,4.8c0,0.1-0.1,0.2-0.1,0.3
		c-0.2,0.4-0.3,0.9-0.5,1.3c-0.2,0.7-0.4,1.4-0.6,2c-0.2,0.5-0.4,1-0.2,1.5c0.1,0.3,0,0.6,0,0.8c-0.1,0.7-0.2,1.3-0.2,2
		c0,0.8,0.2,1.6,0,2.4c0,0.1,0,0.2,0,0.3c0.2,0.6,0,1.2-0.1,1.8c0,0.1,0,0.2,0,0.2c0.1,0.7,0.1,1.4,0.2,2.1c0,0.8,0,1.7,0.1,2.5
		c0.1,0.7,0,1.3,0.2,2c0.1,0.2,0.1,0.5,0,0.6c-0.1,0.2,0,0.3,0,0.4c0.3,0.7,0.5,1.5,0.7,2.3c0,0.2,0.2,0.4,0.3,0.6
		c0.1,0.2,0.2,0.3,0.3,0.5c0.3,0.5,0.5,1.1,0.8,1.6c0.2,0.4,0.4,0.7,0.7,1c0.5,0.8,0.9,1.6,1.4,2.3c0.2,0.3,0.5,0.6,0.5,1.1
		c0,0.1,0.1,0.2,0.2,0.3c0.1,0.1,0.2,0.2,0.3,0.4c0.3,0.4,0.5,0.8,0.8,1.1c0.5,0.4,0.6,1.1,0.8,1.6c0.1,0.3,0.2,0.6,0.4,0.8
		c0.2,0.2,0.3,0.4,0.4,0.7c0.1,0.1,0.1,0.2,0.2,0.3c0.2,0.3,0.5,0.5,0.7,0.8c0.8,1.3,2.1,2.3,3,3.6c0.1,0.2,0.3,0.3,0.4,0.5
		c0.4,0.6,0.7,1.3,1.2,1.8c0.4,0.4,0.9,0.8,1.4,1.1c0.8,0.5,1.6,1,2.4,1.5c0.4,0.2,0.8,0.5,1.2,0.8c0.5,0.3,1.1,0.7,1.6,1
		c0.8,0.5,1.6,1.1,2.4,1.6c0.8,0.5,1.6,0.8,2.4,1.2c0.3,0.1,0.6,0.4,0.9,0.5c0.5,0.2,1.1,0.3,1.6,0.6c0.8,0.5,1.8,0.7,2.6,1.1
		c0.9,0.4,1.8,0.7,2.7,0.9c0.4,0.1,0.9,0.2,1.3,0.3c0.6,0.2,1.3,0.5,1.9,0.5c1.1,0,2.2,0.3,3.2,0.5c0.2,0.1,0.5,0,0.7,0.1
		c0.6,0,1.2,0,1.8,0.1c0.4,0.1,0.8,0.1,1.2,0c0.3-0.1,0.7-0.1,1-0.1c0.2,0,0.3,0,0.5,0c0.7-0.2,1.3-0.3,2-0.3
		c0.9-0.1,1.7-0.3,2.6-0.5c0.9-0.2,1.7-0.4,2.6-0.7c0.7-0.3,1.6-0.2,2.2-0.8c0,0,0.1,0,0.1,0c1.2-0.1,2.2-0.7,3.4-1
		c0.6-0.2,1.1-0.5,1.6-0.8c0.5-0.3,0.9-0.6,1.3-0.9c0.8-0.5,1.6-0.9,2.3-1.5c0.7-0.5,1.5-0.9,2.2-1.4c0.5-0.3,1-0.7,1.5-1
		c0.5-0.3,0.9-0.5,1.4-0.8c0.6-0.4,1.3-0.6,1.8-1.2c0.2-0.2,0.4-0.5,0.6-0.6c0.6-0.2,0.9-0.7,1.3-1.1c0.9-0.9,1.8-1.7,2.5-2.8
		c0.3-0.5,0.8-0.8,1-1.3c0.6-1.1,1.6-2,2.1-3.2c0.3-0.7,0.7-1.3,1.1-2c0.9-1.5,1.6-3.1,2.3-4.8c0.3-0.8,0.5-1.5,0.8-2.3
		c0.1-0.5,0.2-0.9,0.3-1.4c0.1-0.9,0.5-1.7,0.5-2.6c0.1-0.8,0.6-1.4,0.6-2.2c0.1-0.8,0.4-1.5,0.4-2.3c0-0.2,0.1-0.3,0.1-0.5
		c0.1-0.2,0.2-0.5,0.2-0.7c0.2-0.9,0.3-1.8,0.5-2.6c0-0.2,0-0.3-0.1-0.5c0-0.1-0.1-0.3-0.1-0.4c0-0.9,0-1.8-0.2-2.7
		c-0.2-0.8-0.2-1.7-0.4-2.5c-0.1-0.5-0.3-1-0.3-1.5c0-0.7-0.2-1.4-0.4-2c-0.1-0.6-0.4-1.2-0.6-1.8c-0.2-0.6-0.5-1.2-0.7-1.8
		c-0.2-0.6-0.6-1.1-0.8-1.7c-0.2-0.7-0.6-1.4-0.9-2.1c-0.1-0.3-0.3-0.5-0.4-0.7c-0.3-0.7-0.7-1.4-1-2.1c-0.2-0.4-0.4-0.7-0.5-1.1
		c-0.1-0.9-0.7-1.6-1.2-2.3c-0.4-0.6-0.9-1.1-1.3-1.7c-0.3-0.5-0.7-1-1.1-1.4c-0.4-0.4-0.9-0.7-1.2-1.2c-0.2-0.3-0.5-0.6-0.8-0.8
		c-0.8-0.5-1.5-1.3-2.1-2c-0.4-0.5-0.8-1.1-1.5-1.3c-0.2,0-0.3-0.2-0.5-0.4c-1-1-2-1.8-3.1-2.6c-1-0.7-2-1.4-3-2
		C65.5,8.1,65,7.3,64,7.1C64,7.1,63.9,7,63.9,7c-0.5-0.3-1-0.7-1.6-0.9c-0.6-0.2-1.2-0.3-1.8-0.5c-0.7-0.2-1.3-0.5-2-0.8
		c-0.6-0.3-1.2-0.4-1.8-0.5c-1.3-0.4-2.6-0.4-3.9-0.4c-0.3,0-0.5,0-0.8,0c-0.6,0-1.2,0-1.8,0c-0.4,0-0.8-0.1-1.3-0.1
		c-0.8,0-1.5-0.1-2.3-0.1c-0.7,0-1.4,0.1-2.1,0.1C43.6,3.7,42.6,3.8,41.6,3.9z"/>
	<path d="M45.1,46.5c-1.5,0.7-2.3,2-3.4,3c-0.3,0.3-0.6,0.6-0.9,0.8c-0.1,0.1-0.1,0.1-0.2,0.2c-0.2,0.5-0.7,0.9-1,1.2
		c-0.8,0.8-1.6,1.6-2.4,2.5c-0.7,0.7-1.4,1.4-2.1,2.2c-1,1-1.9,2.1-2.9,3.1c-0.9,0.9-1.8,1.8-2.7,2.6c-0.7,0.7-1.4,1.3-1.9,2.1
		c-0.5,0.7-1.2,1.1-1.7,1.6c-0.2,0.2-0.3,0.4-0.4,0.7c-0.2,0.4-0.4,0.8-0.7,1.2c-0.2,0.3-0.7,0.2-0.9,0c-0.3-0.3-0.6-0.6-0.9-0.9
		c-0.3-0.3-0.3-0.5,0-0.8c0.2-0.3,0.5-0.5,0.8-0.7c0.3-0.3,0.5-0.5,0.7-0.8c0.9-0.9,1.8-1.7,2.6-2.5c0.6-0.6,1.2-1.3,1.9-1.9
		c1-1,2-1.9,3.1-2.8c0.3-0.3,0.6-0.7,0.9-1c1.1-1,2.1-2.1,3.1-3.2c1.2-1.3,2.3-2.5,3.6-3.7c0.4-0.4,0.7-0.8,1.1-1.2
		c0,0,0-0.1,0.1-0.1c0.6-0.6,1.3-1.2,1.9-1.9c0.3-0.3,0.6-0.6,0.8-0.9c0.3-0.3,0.2-0.5-0.1-0.8c-0.6-0.5-1.1-1.1-1.6-1.7
		c-0.4-0.4-0.7-0.7-1.1-1.1c-1-1-2.1-2.1-3.1-3.1c-0.6-0.6-1.1-1.3-1.6-2c-0.1-0.1-0.2-0.2-0.2-0.3c-0.3-0.4-0.6-0.7-1-1.1
		c-0.4-0.4-0.7-0.8-1.1-1.2c-0.1,0.1-0.2,0.1-0.3,0.2c-1.1,1.1-2.2,2.2-3.4,3.2c-0.2,0.2-0.5,0.3-0.7,0.5c-0.1,0.1-0.2,0.2-0.3,0.3
		c-0.3,0.3-0.5,0.6-0.7,1c-0.1,0.2-0.3,0.3-0.4,0.4c-0.3,0.2-0.6,0.4-0.8,0.6c-0.4,0.7-1.1,1.2-1.7,1.8c-0.5,0.5-0.9,1-1.3,1.5
		c-0.2,0.2-0.3,0.3-0.5,0.5c-0.3,0.3-0.5,0.6-0.8,0.9c-0.5,0.5-1.1,1-1.6,1.6c-0.1,0.1-0.2,0.1-0.3,0.2c-0.4,0.3-0.6,0.3-1.1,0.1
		c-0.6-0.3-0.8-0.8-0.9-1.4c-0.1-1.1,0.1-2.2,0.1-3.3c0-0.4,0.2-0.7,0.3-1.1c0.3-1.5,0.5-3,0.8-4.5c0-0.2,0-0.3,0-0.5
		c0-0.4-0.2-0.6-0.6-0.4c-0.7,0.2-1.3,0.3-2,0.3c-0.4,0-0.7,0.1-1.1,0.2c-0.6,0.1-1.2,0.1-1.9,0.2c-0.5,0.1-1,0.2-1.4,0.4
		c-0.6,0.3-1.2,0.6-2,0.4c-0.1,0-0.3,0-0.4,0c-0.5,0.1-0.7,0-0.8-0.4c-0.2-0.5-0.1-0.6,0.2-1c0.3-0.2,0.4-0.6,0.7-0.8
		c0.3-0.3,0.6-0.6,0.8-0.9c0.7-0.8,1.3-1.6,2-2.3c0.1-0.1,0.2-0.3,0.3-0.4c0.3-0.3,0.6-0.6,0.9-0.9c1.4-1.4,2.7-2.8,4.1-4.2
		c0.5-0.5,0.9-1.1,1.6-1.3c0.1,0,0.1-0.1,0.1-0.1c0.5-0.8,1.2-1.4,1.8-2c0.1-0.1,0.2-0.4,0.3-0.6c0.1-0.3,0.3-0.5,0.6-0.5
		c0.3,0,0.5-0.1,0.6-0.4c0.2-0.3,0.4-0.3,0.7-0.1c1.3,0.8,2.2,2,3.2,3c0.7,0.7,1.1,1.5,1.8,2.2c0.6,0.7,1,1.5,1.7,2.1
		c0.6,0.5,1,1.1,1.5,1.7c0.5,0.6,1.1,1.2,1.7,1.7c0.2,0.2,0.4,0.4,0.6,0.7c0.6,0.7,1.1,1.3,1.7,2c0.2,0.2,0.5,0.4,0.7,0.6
		c0.1,0.1,0.3,0.2,0.3,0.3c0.3,0.6,0.7,0.9,1.1,1.4c0.2,0.2,0.2,0.4,0.4,0.6c0.5,0.4,0.9,0.9,1.3,1.4c0.2,0.2,0.5,0.4,0.7,0.6
		c0.7,0.7,1.3,1.4,2,2c0.6,0.6,1.2,1.1,1.8,1.6c0.8-0.8,1.5-1.7,2.4-2.4c0.6-0.4,1.1-0.9,1.7-1.4c0.6-0.6,1.3-1.2,1.7-2
		c0.1-0.3,0.4-0.6,0.6-0.8c0.8-0.7,1.5-1.4,2.1-2.2c0.3-0.4,0.8-0.7,1.1-1c0.8-0.8,1.5-1.5,2.3-2.3c0.8-0.8,1.7-1.6,2.6-2.4
		c1.1-1.1,2.3-2.1,3.2-3.4c0,0,0.1-0.1,0.1-0.1c0.8-0.5,1.3-1.2,1.8-2.1c0.1-0.2,0.3-0.3,0.4-0.4c0.4-0.3,0.8-0.6,1.2-0.9
		c0.5-0.3,1-0.6,1.6-0.5c0.2,0,0.4-0.1,0.5-0.1c0.3,0.1,0.6,0.2,0.8,0.6c0.2,0.4,0.6,0.8,1,1.1c0.5,0.4,0.9,0.9,1.3,1.5
		c0.3,0.5,0.8,1,1.3,1.3c0.3,0.3,0.5,0.6,0.8,0.9c0.4,0.5,0.8,1,1.2,1.4c0.7,0.7,1.4,1.4,2.1,2.1c0.4,0.4,0.8,0.9,1.2,1.2
		c0.7,0.6,1.2,1.4,1.8,2.1c0.4,0.5,0.8,0.9,1.2,1.4c0.1,0.1,0.3,0.2,0.4,0.3c0.5,0.3,0.7,0.8,0.6,1.3c0,0.1-0.2,0.3-0.3,0.3
		c-0.3,0-0.6,0-0.8,0c-1-0.2-2-0.3-3.1-0.4c-0.9-0.1-1.8-0.2-2.7-0.2c-0.9-0.1-1.7-0.1-2.6-0.2c-0.5,0-0.6,0.1-0.4,0.6
		c0.1,0.3,0.3,0.6,0.4,0.9c0,0.1,0.1,0.1,0.1,0.2c0.1,1.1,0.6,2.1,0.6,3.2c0,0.2,0.1,0.4,0.1,0.5c0.2,0.3,0.2,0.6,0.1,1
		c0,0.2,0,0.4,0,0.6c0.1,0.7,0.1,1.3,0.1,2c0,0.3-0.2,0.7-0.4,0.9c-0.2,0.2-0.5,0.4-0.8,0.3c-0.4,0-0.8,0-1.2-0.4
		c-0.3-0.3-0.6-0.6-0.9-0.9c-0.2-0.2-0.4-0.4-0.7-0.2c-0.2,0.1-0.4,0.1-0.6,0.1c-0.2,0-0.4,0-0.5-0.1c-0.3-0.3-0.6-0.6-1.1-0.8
		c-0.3-0.1-0.5-0.4-0.7-0.7c-0.4-0.4-0.8-0.8-1.1-1.2c-0.7-0.8-1.4-1.5-2-2.3c-0.7-0.8-1.3-1.6-1.9-2.5c-0.5-0.6-0.9-1.2-1.4-1.8
		c-0.4-0.5-0.9-0.8-1.4-1.2c-0.2-0.2-0.5-0.4-0.7-0.6c-0.3-0.3-0.7-0.3-1,0.1c-0.6,0.6-1.3,1.2-1.9,1.9c-0.9,0.9-1.8,1.8-2.7,2.8
		c-0.6,0.6-1.3,1.2-1.9,1.9c-0.5,0.6-1.1,1.1-1.6,1.7c-0.5,0.5-1.1,1.1-1.6,1.6c-0.4,0.4-0.5,0.7-0.3,1.2c0.1,0.1,0.1,0.3,0.1,0.5
		c0.2,0.6,0.5,1,0.9,1.4c0.5,0.4,1,0.8,1.3,1.5c0.1,0.3,0.5,0.4,0.7,0.6c0.6,0.6,1.3,1.3,1.9,1.9c1.5,1.4,2.9,2.9,4.4,4.3
		c0.5,0.5,1.1,0.9,1.5,1.4c0.6,0.7,1.2,1.4,1.9,2c0.3,0.3,0.6,0.5,0.9,0.8c0.4,0.3,0.8,0.6,1.1,1c0.1,0.1,0.2,0.2,0.3,0.3
		c0.3,0.3,0.6,0.6,1,0.9c0.1,0.1,0.2,0.2,0.4,0.3c0.5,0.1,0.6,0.5,0.9,0.8c0.3,0.4,0.6,0.7,1.1,1c0.3,0.2,0.6,0.5,0.8,0.8
		c0.4,0.5,0.9,1.1,1.3,1.6c0.3,0.3,0.6,0.6,0.8,0.9c0.3,0.3,0.2,0.6,0,1c-0.3,0.5-0.9,0.6-1.4,0.8c-0.1,0-0.2,0-0.3-0.1
		c-0.2-0.4-0.8-0.5-0.8-1c0-0.1-0.1-0.2-0.2-0.2c-0.6-0.6-1.1-1.3-1.8-1.8c-0.6-0.5-0.9-1.1-1.5-1.5c-0.7-0.6-1.3-1.3-2-1.9
		c-0.4-0.4-0.9-0.7-1.3-1c-0.7-0.8-1.4-1.6-2.1-2.4c-0.3-0.4-0.6-0.8-0.9-1.2c-0.2-0.3-0.4-0.6-0.9-0.7c-0.1,0-0.1-0.1-0.1-0.1
		c-0.2-0.7-1-0.8-1.4-1.3c-0.4-0.5-0.9-1-1.4-1.4c-0.7-0.7-1.4-1.3-2.1-2c-0.8-0.7-1.5-1.5-2.2-2.2c-0.3-0.3-0.7-0.5-1-0.8
		c-0.1-0.1-0.3-0.2-0.4-0.4C46.3,47.6,45.7,47.1,45.1,46.5z M71.6,44.1c-0.1-0.9-0.3-1.7-0.4-2.5c-0.1-0.6-0.2-1.1-0.3-1.7
		c-0.1-0.7-0.3-1.4-0.4-2.1c-0.1-0.5-0.4-0.9-0.4-1.5c0-0.2-0.1-0.4-0.3-0.5c-0.4-0.5-0.3-1,0.2-1.4c0.1-0.1,0.2-0.2,0.2-0.4
		c0.1-0.5,0.5-0.8,0.9-0.5c0.4,0.2,0.9,0.2,1.3,0.2c0.3,0,0.6,0.2,0.9,0.2c0.8,0.2,1.6,0.3,2.4,0.4c0.8,0.2,1.7,0.3,2.5,0.5
		c0.2,0,0.4,0.1,0.7,0.1c-0.2-0.4-0.5-0.7-0.8-0.9c-0.5-0.4-0.8-1-1.2-1.4c-0.8-0.8-1.5-1.8-2.4-2.4c-0.2-0.2-0.5-0.4-0.7-0.6
		c-0.5-0.6-1.1-1.2-1.7-1.8c-0.5-0.4-0.9-0.9-1.4-1.3c-0.3-0.3-0.6-0.5-0.8-0.8c-0.2-0.3-0.4-0.6-0.7-0.7c-0.3-0.2-0.6-0.5-0.8-0.8
		c-0.2-0.4-0.5-0.6-0.9-0.9c-2.9,2.9-5.8,5.8-8.8,8.8c0.5,0.4,0.9,0.7,1.2,1.1c0.2,0.1,0.3,0.3,0.5,0.5c0.4,0.5,0.8,0.9,1.2,1.4
		c0.2,0.2,0.3,0.4,0.5,0.7c0.3,0.4,0.5,0.7,0.9,1c0.8,0.7,1.6,1.3,2.3,2c0.6,0.5,1.2,1.1,1.7,1.6c0.7,0.6,1.4,1.2,2,1.8
		c0.2,0.1,0.2,0.4,0.4,0.5c0.4,0.4,0.8,0.7,1.2,1.1C71,43.9,71.2,44,71.6,44.1z M20.3,44.7c0.1,0,0.1,0.1,0.2,0.1
		c0.4-0.4,0.7-0.8,1.1-1.2c1-1,2.1-2,3.1-3.1c0.5-0.6,1.2-1,1.5-1.7c0-0.1,0.1-0.2,0.2-0.2c0.6-0.3,1-0.7,1.3-1.3
		c0-0.1,0.1-0.1,0.2-0.2c0.2-0.1,0.4-0.3,0.6-0.4c0.7-0.7,1.4-1.4,2.1-2.1c0.4-0.4,0.8-0.8,1.3-1.3c0.3-0.3,0.3-0.6,0-0.9
		c-0.5-0.5-0.9-1-1.4-1.5c-0.5-0.5-1-0.9-1.4-1.4c-0.5-0.7-1.1-1.4-1.7-2c-0.6-0.6-1.4-1.1-1.9-1.8c-0.4-0.5-0.9-0.9-1.4-1.2
		c-0.4-0.3-0.4-0.3-0.8,0.1c-0.1,0.1-0.3,0.2-0.4,0.4c-0.2,0.3-0.4,0.6-0.7,0.7c-0.4,0.2-0.8,0.4-1.1,0.7c-0.6,0.6-1.3,1-1.6,1.8
		c0,0.1-0.1,0.1-0.1,0.1c-0.6,0.2-0.9,0.8-1.3,1.2c-0.4,0.4-0.9,0.8-1.2,1.4c-0.1,0.2-0.5,0.4-0.7,0.6c-0.3,0.2-0.5,0.5-0.7,0.8
		c-0.2,0.3-0.4,0.6-0.7,0.9c-0.5,0.6-1.1,1.2-1.6,1.8c-0.1,0.1-0.1,0.2-0.1,0.3c0.2,0,0.4-0.1,0.5-0.1c0.3-0.1,0.5-0.1,0.8-0.2
		c0.9-0.1,1.8-0.3,2.8-0.4c1.4-0.2,2.7-0.3,4.1-0.4c0.3,0,0.6,0.2,0.6,0.6c0,0.3,0,0.6-0.1,0.9c-0.1,0.6-0.3,1.2-0.4,1.8
		c-0.1,0.6-0.1,1.2-0.3,1.8c-0.2,0.6-0.2,1.3-0.3,1.9c-0.1,0.4-0.1,0.8-0.1,1.2C20.4,43.1,20.3,43.9,20.3,44.7z"/>
	<path d="M47.2,76.6c-1.3-0.1-2.5-0.2-3.6-0.7c-0.6-0.2-1.1-0.7-1.7-1.1c-0.2-0.1-0.3-0.3-0.2-0.6c0.1-0.4,0-0.9,0.1-1.3
		c0-0.3,0.5-0.6,0.8-0.6c0.1,0,0.3,0.1,0.4,0.2C43,72.7,43,72.9,43,73c0.1,0.7,0.9,1.4,1.5,1.4c0.3,0,0.5,0,0.8,0.1
		c0.5,0.1,1,0.2,1.4,0.4c0.9,0.2,1.8-0.5,1.9-1.1c0-0.6-0.4-1.1-1-1.2c-1.2-0.2-2.3-0.5-3.4-1c-0.5-0.2-0.9-0.6-1.2-1
		c-0.4-0.5-0.3-1.2-0.1-1.8c0.2-0.7,0.6-1.4,1.2-1.9c0.4-0.4,0.9-0.6,1.4-0.7c1.6-0.2,3,0.2,4.2,1.2c0.3,0.2,0.4,0.6,0.5,0.9
		c0.1,0.2,0.1,0.5-0.2,0.5c0,0-0.1,0-0.1,0.1c-0.2,0.2-0.3,0.4-0.7,0.3c-0.5-0.1-1-0.2-1.2-0.7c-0.2-0.4-0.6-0.6-1-0.7
		c-0.6-0.2-1.3-0.2-1.9,0.3c-0.1,0.1-0.3,0.3-0.3,0.4c0.1,0.4,0.2,0.9,0.4,1.3c0.3,0.6,0.9,0.8,1.5,0.8c0.6,0.1,1.2,0.1,1.7,0.2
		c0.6,0.1,1,0.4,1.3,1c0.3,0.7,0.7,1.4,0.6,2.2c-0.1,0.4-0.2,0.9-0.5,1.2c-0.1,0.1-0.2,0.2-0.2,0.3C49.4,75.7,49.2,76,49,76
		C48.4,76.3,47.7,76.4,47.2,76.6z"/>
	<path d="M48.1,19.2c-1.1,0-2.2-0.1-3.2-0.1c-0.3,0-0.5,0-0.8,0.1c-0.7,0-1.3,0.1-2,0.3c-0.4,0.1-0.5,0.2-0.4,0.6
		c0.1,0.6,0.2,1.2,0.2,1.8c0,0.5-0.1,0.9-0.1,1.4c0,0.4-0.8,0.7-1.1,0.3c-0.3-0.3-0.5-0.7-0.4-1.1c0-0.5,0-0.9,0-1.4
		c0-0.7-0.1-1.4-0.1-2c0-0.5,0-0.9-0.1-1.4c0-0.5-0.1-1-0.1-1.5c0-0.3-0.1-0.6-0.1-0.8c0-0.4-0.1-0.9,0.2-1.3
		c0.3-0.5,0.8-0.5,1.1-0.2c0.1,0.1,0.1,0.2,0.1,0.3c0.1,1,0.2,2,0.3,3c0.1,0.8,0.3,1,1,0.6c0.7-0.3,1.4-0.4,2.2-0.3
		c1,0,1.9,0.1,2.9,0.1c0.3,0,0.5-0.1,0.4-0.4c0-0.2,0-0.3,0-0.5c-0.1-0.8,0-1.5,0.2-2.3c0-0.2,0.2-0.4,0.3-0.5
		c0.3-0.3,0.7-0.2,0.8,0.2c0.1,0.4,0.2,0.7,0.2,1.1c0,0.6,0,1.1,0,1.7c0,0.2,0,0.5,0.1,0.7c0.2,0.6,0,1.1,0,1.7c0,1-0.1,2.1-0.1,3.1
		c0,0.4-0.1,0.8-0.4,1c-0.4,0.3-0.6,0.3-0.9-0.1c-0.2-0.3-0.3-0.6-0.3-1C48.1,21.3,48.1,20.3,48.1,19.2z"/>
</g>
</svg>
